<?xml version="1.0" encoding="UTF-8"?>
<svg fill="none" viewBox="0 0 786 685" xmlns="http://www.w3.org/2000/svg">
<g clip-path="url(#v)">
<mask id="u" x="0" y="0" width="786" height="685" maskUnits="userSpaceOnUse">
<path d="M0.5 0.5H785.37V683.77H0.5V0.5Z" fill="#fff" stroke="#fff"/>
</mask>
<g mask="url(#u)">
<path d="m649.51 389.39h-0.45c-3.968-0.118-7.728-1.804-10.455-4.688-2.727-2.885-4.2-6.733-4.095-10.702 2.22-76.22-14.91-133.66-50.91-170.72-35.6-36.71-91.49-55.28-166.1-55.28-3.978 0-7.794-1.58-10.607-4.393s-4.393-6.629-4.393-10.607 1.58-7.794 4.393-10.607 6.629-4.393 10.607-4.393c83 0 146.15 21.65 187.62 64.35 41.88 43.08 61.88 107.84 59.37 192.47-0.112 3.9-1.739 7.603-4.535 10.323-2.797 2.72-6.544 4.243-10.445 4.247z" fill="url(#t)"/>
<path d="m367.5 148h-50c-3.978 0-7.794-1.58-10.607-4.393s-4.393-6.629-4.393-10.607 1.58-7.794 4.393-10.607 6.629-4.393 10.607-4.393h50c3.978 0 7.794 1.58 10.607 4.393s4.393 6.629 4.393 10.607-1.58 7.794-4.393 10.607-6.629 4.393-10.607 4.393z" fill="url(#i)"/>
<path d="m272.5 148h-117c-3.978 0-7.794-1.58-10.607-4.393s-4.393-6.629-4.393-10.607 1.58-7.794 4.393-10.607 6.629-4.393 10.607-4.393h117c3.978 0 7.794 1.58 10.607 4.393s4.393 6.629 4.393 10.607-1.58 7.794-4.393 10.607-6.629 4.393-10.607 4.393z" fill="url(#h)"/>
<path d="m693.1 419.89c-3.315 0-6.495-1.317-8.839-3.661s-3.661-5.524-3.661-8.839c0-80.37-6.57-122.65-19.53-158.54-0.592-1.551-0.869-3.205-0.814-4.864 0.054-1.66 0.439-3.292 1.131-4.801s1.677-2.866 2.899-3.99 2.656-1.993 4.217-2.557c1.562-0.564 3.22-0.811 4.879-0.727 1.658 0.084 3.283 0.497 4.779 1.216 1.497 0.719 2.835 1.729 3.937 2.971s1.946 2.691 2.482 4.262c13.95 38.61 21 85.63 21 167 4e-3 1.642-0.316 3.269-0.941 4.788s-1.543 2.9-2.702 4.063c-1.159 1.164-2.536 2.088-4.053 2.719-1.516 0.631-3.142 0.957-4.784 0.96z" fill="url(#g)"/>
<path d="m657.44 222.66c-2.25 3e-3 -4.46-0.601-6.396-1.748-1.936-1.148-3.526-2.796-4.604-4.772-14.775-27.561-36.058-51.097-62-68.56-23.59-15.83-52-27.33-84.47-34.19-3.244-0.687-6.081-2.634-7.889-5.413-1.808-2.78-2.438-6.163-1.751-9.407 0.687-3.2436 2.634-6.0815 5.414-7.8893 2.779-1.8079 6.162-2.4376 9.406-1.7507 75.38 15.94 130.31 54.71 163.27 115.25 1.035 1.906 1.557 4.048 1.514 6.217-0.043 2.168-0.649 4.288-1.758 6.152-1.109 1.863-2.684 3.407-4.57 4.478-1.885 1.071-4.017 1.634-6.186 1.633h0.02z" fill="url(#f)"/>
<path d="m461.52 107.48h-1.2c-13.58-1.29-28-2-42.82-2h-49c-3.315 0-6.495-1.317-8.839-3.661-2.344-2.3444-3.661-5.5238-3.661-8.839s1.317-6.4946 3.661-8.8388 5.524-3.6612 8.839-3.6612h49c15.62 0 30.83 0.7 45.18 2.06 3.189 0.3132 6.135 1.8388 8.232 4.2618 2.096 2.4231 3.182 5.5586 3.033 8.7591-0.149 3.2006-1.521 6.2221-3.833 8.4401s-5.388 3.463-8.592 3.479z" fill="url(#e)"/>
<path d="m325.5 105.48h-132.5c-3.315 0-6.495-1.317-8.839-3.661-2.344-2.3444-3.661-5.5238-3.661-8.839s1.317-6.4946 3.661-8.8388 5.524-3.6612 8.839-3.6612h132.5c3.315 0 6.495 1.317 8.839 3.6612s3.661 5.5236 3.661 8.8388-1.317 6.4946-3.661 8.839c-2.344 2.344-5.524 3.661-8.839 3.661z" fill="url(#d)"/>
<path d="m155.5 105.48h-12.83c-3.315 0-6.495-1.317-8.839-3.661-2.344-2.3444-3.661-5.5238-3.661-8.839s1.317-6.4946 3.661-8.8388 5.524-3.6612 8.839-3.6612h12.83c3.315 0 6.495 1.317 8.839 3.6612s3.661 5.5236 3.661 8.8388-1.317 6.4946-3.661 8.839c-2.344 2.344-5.524 3.661-8.839 3.661z" fill="url(#c)"/>
<path d="m105.5 105.48h-43c-3.3152 0-6.4946-1.317-8.8388-3.661-2.3442-2.3444-3.6612-5.5238-3.6612-8.839s1.317-6.4946 3.6612-8.8388 5.5236-3.6612 8.8388-3.6612h43c3.315 0 6.495 1.317 8.839 3.6612s3.661 5.5236 3.661 8.8388-1.317 6.4946-3.661 8.839c-2.344 2.344-5.524 3.661-8.839 3.661z" fill="url(#b)"/>
<path d="m735.82 389.89c-4.64-3e-3 -9.09-1.847-12.371-5.129-3.282-3.281-5.126-7.731-5.129-12.371 0-60.49-9.76-113.45-29-157.4-1.003-2.118-1.571-4.415-1.67-6.757-0.098-2.341 0.274-4.678 1.096-6.873 0.822-2.194 2.076-4.202 3.688-5.902 1.613-1.701 3.55-3.061 5.698-3.998 2.147-0.938 4.461-1.435 6.804-1.462 2.344-0.026 4.668 0.418 6.837 1.307 2.168 0.889 4.136 2.204 5.786 3.868 1.65 1.663 2.95 3.642 3.821 5.817 21.2 48.41 32 106.09 32 171.44-5e-3 2.3-0.464 4.576-1.349 6.699-0.886 2.122-2.181 4.049-3.812 5.671-1.631 1.621-3.565 2.906-5.693 3.779-2.127 0.873-4.406 1.319-6.706 1.311z" fill="url(#a)"/>
<path d="m675.9 174.07c-2.747 5e-3 -5.456-0.639-7.908-1.878-2.451-1.238-4.576-3.038-6.202-5.252-41.14-55.87-104.88-88.55-189.46-97.13-2.329-0.1761-4.6-0.8167-6.677-1.884-2.078-1.0674-3.921-2.5399-5.421-4.3307-1.499-1.7909-2.625-3.8638-3.311-6.0967s-0.918-4.5805-0.682-6.9044c0.235-2.3239 0.934-4.5771 2.054-6.6268 1.12-2.0498 2.639-3.8545 4.468-5.3078s3.93-2.5259 6.179-3.1544c2.25-0.6285 4.603-0.8003 6.92-0.5052 94.83 9.6 166.87 47 214.14 111.19 1.916 2.607 3.072 5.693 3.341 8.917 0.268 3.224-0.362 6.459-1.82 9.346-1.458 2.888-3.688 5.315-6.442 7.013-2.754 1.697-5.924 2.599-9.159 2.604h-0.02z" fill="#070708"/>
<path d="m412.5 67.48h-184c-4.641 0-9.092-1.8437-12.374-5.1256s-5.126-7.7331-5.126-12.374 1.844-9.0925 5.126-12.374c3.282-3.2818 7.733-5.1256 12.374-5.1256h184c4.641 0 9.092 1.8438 12.374 5.1256 3.282 3.2819 5.126 7.7331 5.126 12.374s-1.844 9.0925-5.126 12.374-7.733 5.1256-12.374 5.1256z" fill="url(#s)"/>
<path d="m175.5 67.48h-75c-4.6413 0-9.0925-1.8437-12.374-5.1256s-5.1256-7.7331-5.1256-12.374 1.8437-9.0925 5.1256-12.374c3.2819-3.2818 7.7331-5.1256 12.374-5.1256h75c4.641 0 9.092 1.8438 12.374 5.1256 3.282 3.2819 5.126 7.7331 5.126 12.374s-1.844 9.0925-5.126 12.374-7.733 5.1256-12.374 5.1256z" fill="url(#r)"/>
<path d="m49.5 67.48h-32c-4.6413 0-9.0925-1.8437-12.374-5.1256s-5.1256-7.7331-5.1256-12.374 1.8437-9.0925 5.1256-12.374c3.2819-3.2818 7.7331-5.1256 12.374-5.1256h32c4.6413 0 9.0925 1.8438 12.374 5.1256 3.2819 3.2819 5.1256 7.7331 5.1256 12.374s-1.8437 9.0925-5.1256 12.374-7.7331 5.1256-12.374 5.1256z" fill="url(#q)"/>
<path d="m775.42 388.39c-2.652 0-5.196-1.054-7.071-2.929s-2.929-4.419-2.929-7.071c0-36.13-2.82-70.1-8.39-101-0.426-2.591 0.184-5.245 1.698-7.39s3.81-3.608 6.394-4.074c2.584-0.467 5.247 0.102 7.415 1.583s3.667 3.755 4.173 6.331c5.78 32 8.71 67.19 8.71 104.51 5e-3 1.317-0.25 2.621-0.75 3.839s-1.236 2.325-2.165 3.258-2.033 1.673-3.249 2.178-2.519 0.765-3.836 0.765z" fill="url(#p)"/>
<path d="m760.12 254.61c-2.221 1e-3 -4.379-0.738-6.133-2.1-1.755-1.362-3.006-3.268-3.557-5.42-3.068-12.07-6.74-23.978-11-35.68-0.498-1.242-0.741-2.572-0.715-3.91 0.025-1.338 0.319-2.657 0.864-3.879 0.544-1.223 1.329-2.323 2.307-3.237 0.978-0.913 2.129-1.621 3.385-2.082 1.257-0.46 2.593-0.664 3.929-0.599 1.337 0.065 2.647 0.398 3.853 0.979 1.205 0.581 2.282 1.398 3.166 2.402 0.884 1.005 1.558 2.176 1.981 3.446 4.39 12 8.3 24.62 11.63 37.59 0.326 1.273 0.398 2.597 0.212 3.897-0.186 1.301-0.626 2.552-1.296 3.682-0.669 1.13-1.555 2.117-2.606 2.905s-2.247 1.361-3.52 1.686c-0.816 0.215-1.656 0.323-2.5 0.32z" fill="url(#o)"/>
<path d="m735.83 187.34c-1.878 0-3.719-0.529-5.311-1.526-1.591-0.998-2.87-2.424-3.689-4.114-3.34-6.88-6.94-13.64-10.71-20.08-1.294-2.286-1.637-4.99-0.953-7.527 0.683-2.537 2.337-4.703 4.605-6.03s4.966-1.708 7.513-1.061c2.546 0.647 4.736 2.27 6.095 4.518 4 6.89 7.88 14.11 11.44 21.45 0.741 1.525 1.082 3.213 0.991 4.906s-0.611 3.335-1.511 4.772c-0.899 1.437-2.15 2.621-3.633 3.442-1.484 0.821-3.152 1.251-4.847 1.25h0.01z" fill="url(#n)"/>
<path d="m705.37 137.64c-1.546 9e-3 -3.073-0.34-4.461-1.02s-2.599-1.673-3.539-2.9c-30-39.27-70.51-68.72-120.37-87.62-2.425-0.9781-4.371-2.8673-5.42-5.2628-1.049-2.3954-1.118-5.1065-0.192-7.5521 0.926-2.4457 2.773-4.4313 5.146-5.5314 2.372-1.1001 5.081-1.227 7.546-0.3537 53.4 20.2 96.87 51.89 129.23 94.16 1.134 1.481 1.832 3.25 2.013 5.107 0.182 1.857-0.16 3.728-0.986 5.4-0.826 1.673-2.104 3.082-3.688 4.067-1.585 0.984-3.413 1.506-5.279 1.506z" fill="url(#m)"/>
<path d="m546.47 35.8c-0.881-0.0038-1.759-0.1215-2.61-0.35-38.12-10.25-81.64-15.45-129.36-15.45-33.72 0-67.95 0.06-97 0.12-2.652 0-5.196-1.0536-7.071-2.9289-1.875-1.8754-2.929-4.4189-2.929-7.0711 0-2.6522 1.054-5.1957 2.929-7.0711 1.875-1.8754 4.419-2.9289 7.071-2.9289 29-0.06 63.28-0.12 97-0.12 49.5 0 94.74 5.43 134.56 16.14 2.344 0.6274 4.38 2.0859 5.729 4.1035 1.348 2.0176 1.917 4.4567 1.6 6.8626s-1.498 4.6145-3.323 6.2141c-1.825 1.5995-4.169 2.4809-6.596 2.4798z" fill="url(#l)"/>
<path d="m236.87 20.29c-2.652 0-5.196-1.0536-7.071-2.9289-1.875-1.8754-2.929-4.4189-2.929-7.0711 0-2.6522 1.054-5.1957 2.929-7.0711 1.875-1.8754 4.419-2.9289 7.071-2.9289l24.79-0.06 21.54-0.05c2.652 0 5.196 1.0536 7.071 2.9289 1.875 1.8754 2.929 4.4189 2.929 7.0711 0 2.6522-1.054 5.1957-2.929 7.0711-1.875 1.8753-4.419 2.9289-7.071 2.9289l-21.53 0.05-24.82 0.06h0.02z" fill="url(#k)"/>
<path d="m77 20.48c-2.6522 0-5.1957-1.0536-7.0711-2.9289-1.8753-1.8754-2.9289-4.4189-2.9289-7.0711 0-2.6522 1.0536-5.1957 2.9289-7.0711 1.8754-1.8754 4.4189-2.9289 7.0711-2.9289 39.83 0 80 0 126.42-0.12 2.652 0 5.196 1.0536 7.071 2.9289 1.875 1.8754 2.929 4.4189 2.929 7.0711 0 2.6522-1.054 5.1957-2.929 7.0711-1.875 1.8753-4.419 2.9289-7.071 2.9289-46.42 0.09-86.58 0.12-126.42 0.12z" fill="url(#j)"/>
<path d="m736 488.36c-4.641 0-9.093-1.844-12.374-5.126-3.282-3.282-5.126-7.733-5.126-12.374v-50.09c0-4.641 1.844-9.092 5.126-12.374 3.281-3.282 7.733-5.126 12.374-5.126s9.093 1.844 12.374 5.126c3.282 3.282 5.126 7.733 5.126 12.374v50.09c-3e-3 4.64-1.847 9.09-5.129 12.371-3.281 3.282-7.731 5.126-12.371 5.129z" fill="#070708"/>
<path d="m693.39 585.63c-3.315 0-6.495-1.317-8.839-3.661s-3.661-5.524-3.661-8.839v-127.38c0-3.315 1.317-6.495 3.661-8.839s5.524-3.661 8.839-3.661 6.495 1.317 8.839 3.661 3.661 5.524 3.661 8.839v127.38c0 3.315-1.317 6.495-3.661 8.839s-5.524 3.661-8.839 3.661z" fill="#070708"/>
<path d="m693.39 641.73c-3.315 0-6.495-1.317-8.839-3.661s-3.661-5.524-3.661-8.839v-15.94c0-3.315 1.317-6.495 3.661-8.839s5.524-3.661 8.839-3.661 6.495 1.317 8.839 3.661 3.661 5.524 3.661 8.839v15.94c0 3.315-1.317 6.495-3.661 8.839s-5.524 3.661-8.839 3.661z" fill="#070708"/>
<path d="m736 684.27c-2.299 1e-3 -4.575-0.45-6.698-1.329-2.124-0.879-4.054-2.168-5.679-3.794-1.626-1.625-2.915-3.555-3.794-5.678-0.879-2.124-1.33-4.4-1.329-6.699v-147.77c0-4.641 1.844-9.092 5.126-12.374 3.281-3.282 7.733-5.126 12.374-5.126s9.093 1.844 12.374 5.126c3.282 3.282 5.126 7.733 5.126 12.374v147.77c0 4.641-1.844 9.092-5.126 12.374-3.281 3.282-7.733 5.126-12.374 5.126z" fill="#070708"/>
<path d="m775.87 440.2c-2.652 0-5.196-1.054-7.071-2.929s-2.929-4.419-2.929-7.071v-15.94c0-2.652 1.054-5.196 2.929-7.071s4.419-2.929 7.071-2.929 5.196 1.054 7.071 2.929 2.929 4.419 2.929 7.071v15.94c0 2.652-1.054 5.196-2.929 7.071s-4.419 2.929-7.071 2.929z" fill="#070708"/>
<path d="m775.87 551.35c-2.652 0-5.196-1.054-7.071-2.929s-2.929-4.419-2.929-7.071v-76.17c0-2.652 1.054-5.196 2.929-7.071s4.419-2.929 7.071-2.929 5.196 1.054 7.071 2.929 2.929 4.419 2.929 7.071v76.17c0 2.652-1.054 5.196-2.929 7.071s-4.419 2.929-7.071 2.929z" fill="#070708"/>
</g>
</g>
<defs>
<linearGradient id="t" x1="939.25" x2="83.08" y1="253.69" y2="253.69" gradientUnits="userSpaceOnUse">
<stop stop-color="#070708" offset="1"/>
</linearGradient>
<linearGradient id="i" x1="466.27" x2="205.04" y1="132.98" y2="132.98" gradientUnits="userSpaceOnUse">
<stop stop-color="#070708" offset="1"/>
</linearGradient>
<linearGradient id="h" x1="441.43" x2="-38.58" y1="132.98" y2="132.98" gradientUnits="userSpaceOnUse">
<stop stop-color="#070708" offset="1"/>
</linearGradient>
<linearGradient id="g" x1="753.02" x2="605.16" y1="325.99" y2="325.99" gradientUnits="userSpaceOnUse">
<stop stop-color="#070708" offset="1"/>
</linearGradient>
<linearGradient id="f" x1="858.29" x2="270.91" y1="155.66" y2="155.66" gradientUnits="userSpaceOnUse">
<stop stop-color="#070708" offset="1"/>
</linearGradient>
<linearGradient id="e" x1="597.56" x2="212.25" y1="93.98" y2="93.98" gradientUnits="userSpaceOnUse">
<stop stop-color="#070708" offset="1"/>
</linearGradient>
<linearGradient id="d" x1="502.92" x2="-11.37" y1="92.98" y2="92.98" gradientUnits="userSpaceOnUse">
<stop stop-color="#070708" offset="1"/>
</linearGradient>
<linearGradient id="c" x1="207.61" x2="84.09" y1="92.98" y2="92.98" gradientUnits="userSpaceOnUse">
<stop stop-color="#070708" offset="1"/>
</linearGradient>
<linearGradient id="b" x1="189.2" x2="-32.84" y1="92.98" y2="92.98" gradientUnits="userSpaceOnUse">
<stop stop-color="#070708" offset="1"/>
</linearGradient>
<linearGradient id="a" x1="821.89" x2="608.06" y1="290.18" y2="290.18" gradientUnits="userSpaceOnUse">
<stop stop-color="#070708" offset="1"/>
</linearGradient>
<linearGradient id="s" x1="659.32" x2="-55.79" y1="49.98" y2="49.98" gradientUnits="userSpaceOnUse">
<stop stop-color="#070708" offset="1"/>
</linearGradient>
<linearGradient id="r" x1="308.18" x2="-51.01" y1="49.98" y2="49.98" gradientUnits="userSpaceOnUse">
<stop stop-color="#070708" offset="1"/>
</linearGradient>
<linearGradient id="q" x1="137.16" x2="-81.62" y1="49.66" y2="50.34" gradientUnits="userSpaceOnUse">
<stop stop-color="#070708" offset="1"/>
</linearGradient>
<linearGradient id="p" x1="815.32" x2="722.08" y1="327.02" y2="327.02" gradientUnits="userSpaceOnUse">
<stop stop-color="#070708" offset="1"/>
</linearGradient>
<linearGradient id="o" x1="802.93" x2="700.62" y1="226.29" y2="226.29" gradientUnits="userSpaceOnUse">
<stop stop-color="#070708" offset="1"/>
</linearGradient>
<linearGradient id="n" x1="778.37" x2="676.89" y1="166.95" y2="166.95" gradientUnits="userSpaceOnUse">
<stop stop-color="#070708" offset="1"/>
</linearGradient>
<linearGradient id="m" x1="867.01" x2="394.11" y1="82.19" y2="82.19" gradientUnits="userSpaceOnUse">
<stop stop-color="#070708" offset="1"/>
</linearGradient>
<linearGradient id="l" x1="817.16" x2="4.2" y1="17.9" y2="17.9" gradientUnits="userSpaceOnUse">
<stop stop-color="#070708" offset="1"/>
</linearGradient>
<linearGradient id="k" x1="362.7" x2="146.04" y1="10.23" y2="10.23" gradientUnits="userSpaceOnUse">
<stop stop-color="#070708" offset="1"/>
</linearGradient>
<linearGradient id="j" x1="366.78" x2="-111.4" y1="10.42" y2="10.42" gradientUnits="userSpaceOnUse">
<stop stop-color="#070708" stop-opacity=".98039" offset="1"/>
</linearGradient>
<clipPath id="v">
<rect width="786" height="685" fill="#fff"/>
</clipPath>
</defs>
</svg>
